<?xml version="1.0" standalone="no"?>
<!DOCTYPE svg PUBLIC "-//W3C//DTD SVG 20010904//EN"
 "http://www.w3.org/TR/2001/REC-SVG-20010904/DTD/svg10.dtd">
<svg version="1.0" xmlns="http://www.w3.org/2000/svg"
 width="300.000000pt" height="300.000000pt" viewBox="0 0 300.000000 300.000000"
 preserveAspectRatio="xMidYMid meet">

<g transform="translate(0.000000,300.000000) scale(0.100000,-0.100000)"
fill="#000000" stroke="none">
<path d="M1127 1822 c-17 -47 -70 -72 -259 -122 -100 -27 -195 -55 -210 -61
-57 -24 -118 -116 -118 -179 0 -65 56 -150 112 -169 l32 -11 -26 27 c-73 76
-61 191 24 243 18 11 36 20 41 20 4 0 7 -83 7 -184 l0 -184 -32 -7 c-50 -11
-78 -32 -78 -60 0 -49 77 -58 120 -15 19 19 20 34 20 228 0 114 4 212 8 219 6
10 307 103 333 103 5 0 9 -74 9 -164 l0 -163 -38 -7 c-70 -11 -98 -80 -41
-100 33 -11 97 18 104 48 9 35 1 563 -8 538z"/>
<path d="M1386 1594 c-3 -64 -4 -120 -1 -125 4 -5 17 -9 30 -9 23 0 24 3 27
73 l3 72 38 -67 c21 -38 44 -68 52 -68 7 0 30 30 51 68 l38 67 7 -49 c13 -82
70 -120 144 -96 55 18 65 41 65 152 0 98 0 98 -25 98 -25 0 -25 -1 -25 -83 0
-97 -15 -130 -58 -125 -38 4 -52 40 -52 131 0 75 -1 77 -24 77 -21 0 -33 -14
-71 -85 -26 -47 -48 -85 -50 -85 -2 0 -24 38 -50 85 -37 69 -50 85 -69 85 -22
0 -23 -4 -30 -116z"/>
<path d="M1916 1689 c-19 -15 -26 -30 -26 -54 0 -40 23 -60 82 -70 42 -8 63
-27 54 -50 -6 -18 -61 -20 -102 -5 -26 10 -43 2 -44 -21 0 -14 55 -29 106 -29
45 0 59 4 79 25 46 45 24 95 -52 115 -76 21 -93 42 -50 61 17 7 35 8 61 1 31
-9 37 -8 46 8 14 26 -14 40 -78 40 -35 0 -57 -6 -76 -21z"/>
<path d="M2130 1585 l0 -125 25 0 25 0 0 125 0 125 -25 0 -25 0 0 -125z"/>
<path d="M2272 1676 c-34 -32 -37 -38 -37 -91 0 -53 3 -59 37 -91 31 -28 45
-34 83 -34 46 0 105 22 105 40 0 19 -35 27 -65 15 -77 -33 -143 66 -82 123 26
25 54 28 91 11 20 -9 29 -9 41 1 8 7 15 16 15 21 0 17 -60 39 -105 39 -38 0
-52 -6 -83 -34z"/>
<path d="M1410 1407 c-17 -8 -25 -21 -25 -37 0 -20 10 -30 48 -48 58 -28 53
-47 -9 -38 -34 4 -44 2 -44 -8 0 -17 22 -26 61 -26 43 0 69 17 69 44 0 27 -13
39 -55 53 -43 14 -39 38 7 38 47 0 58 12 24 25 -35 13 -45 13 -76 -3z"/>
<path d="M1584 1410 c-29 -12 -54 -49 -54 -80 0 -52 65 -93 118 -74 36 13 24
29 -21 29 -40 0 -57 15 -57 51 0 31 24 46 66 42 47 -4 56 16 13 31 -37 13 -37
13 -65 1z"/>
<path d="M1934 1410 c-12 -5 -29 -19 -38 -32 -55 -77 51 -168 127 -108 51 41
38 117 -24 139 -37 13 -37 13 -65 1z m74 -42 c28 -28 2 -88 -38 -88 -40 0 -66
60 -38 88 7 7 24 12 38 12 14 0 31 -5 38 -12z"/>
<path d="M1710 1329 c0 -71 2 -80 18 -77 11 2 18 14 20 36 3 29 6 32 38 32 32
0 34 -2 34 -36 0 -27 4 -35 16 -32 13 2 16 18 17 81 2 67 0 77 -15 77 -13 0
-18 -8 -18 -30 0 -28 -3 -30 -35 -30 -32 0 -35 2 -35 30 0 23 -4 30 -20 30
-18 0 -20 -7 -20 -81z"/>
<path d="M2101 1393 c-11 -10 -24 -32 -27 -50 -5 -27 -1 -37 24 -63 38 -37 80
-40 118 -6 37 31 39 90 5 117 -30 24 -92 25 -120 2z m97 -25 c17 -17 15 -48
-5 -70 -20 -22 -41 -23 -65 -1 -20 18 -23 36 -8 64 12 22 59 26 78 7z"/>
<path d="M2270 1330 l0 -80 60 0 c47 0 60 3 60 15 0 11 -11 15 -40 15 l-40 0
0 65 c0 58 -2 65 -20 65 -18 0 -20 -7 -20 -80z"/>
</g>
</svg>
