<?xml version="1.0" standalone="no"?>
<!DOCTYPE svg PUBLIC "-//W3C//DTD SVG 20010904//EN"
 "http://www.w3.org/TR/2001/REC-SVG-20010904/DTD/svg10.dtd">
<svg version="1.0" xmlns="http://www.w3.org/2000/svg"
 width="400.000000pt" height="400.000000pt" viewBox="0 0 400.000000 400.000000"
 preserveAspectRatio="xMidYMid meet">

<g transform="translate(0.000000,400.000000) scale(0.100000,-0.100000)"
fill="#000000" stroke="none">
<path d="M1513 2453 c-11 -33 -52 -81 -88 -103 -28 -17 -367 -115 -502 -144
-85 -19 -172 -113 -193 -209 -22 -103 27 -214 115 -264 55 -31 73 -29 38 5
-60 55 -86 147 -63 217 21 63 98 135 145 135 13 0 15 -30 15 -244 l0 -244 -42
-7 c-91 -15 -136 -61 -105 -108 31 -47 116 -40 161 14 l26 31 0 283 0 284 58
17 c31 9 131 38 221 65 91 26 168 46 173 43 4 -3 8 -101 8 -218 l0 -214 -45
-6 c-81 -13 -131 -79 -90 -119 39 -40 127 -24 162 29 17 26 18 57 18 401 0
205 -1 373 -3 373 -1 0 -5 -8 -9 -17z"/>
<path d="M1850 2115 l0 -165 35 0 34 0 3 98 3 97 50 -90 c69 -123 79 -124 142
-4 l48 92 7 -56 c9 -71 30 -112 68 -132 37 -19 113 -19 154 0 53 25 60 47 64
193 l4 132 -41 0 -41 0 0 -123 c0 -138 -8 -157 -67 -157 -54 0 -63 22 -63 158
l0 122 -40 0 c-38 0 -41 -2 -66 -52 -14 -29 -42 -82 -62 -116 l-35 -64 -64
116 c-63 113 -66 116 -99 116 l-34 0 0 -165z"/>
<path d="M2562 2260 c-30 -19 -52 -54 -52 -85 0 -31 50 -73 103 -85 61 -14 97
-35 97 -55 0 -34 -75 -45 -143 -21 -37 14 -39 13 -50 -11 -13 -28 -4 -37 53
-53 50 -14 105 -12 147 5 47 20 62 41 63 88 0 48 -21 66 -107 92 -73 23 -95
43 -74 69 15 18 76 21 117 6 21 -9 29 -7 40 7 7 10 14 23 14 29 1 37 -153 47
-208 14z"/>
<path d="M2840 2115 l0 -165 35 0 35 0 0 165 0 165 -35 0 -35 0 0 -165z"/>
<path d="M3080 2273 c-59 -22 -110 -95 -110 -158 0 -81 74 -163 155 -173 49
-5 124 18 146 45 11 13 10 18 -10 34 -21 17 -25 17 -51 4 -63 -32 -136 -5
-156 57 -10 34 5 86 33 108 31 24 94 27 127 5 21 -14 24 -13 45 9 27 29 23 38
-23 60 -33 15 -124 21 -156 9z"/>
<path d="M1866 1869 c-51 -40 -28 -91 50 -110 24 -6 47 -16 51 -22 8 -13 -27
-38 -46 -33 -66 18 -81 18 -81 -3 0 -14 8 -22 28 -27 15 -3 33 -8 41 -10 28
-9 92 17 103 42 19 41 -2 70 -67 89 -43 12 -55 20 -53 33 3 13 15 17 57 17 60
0 79 19 36 35 -42 16 -90 12 -119 -11z"/>
<path d="M2104 1876 c-42 -19 -64 -52 -64 -99 0 -31 7 -46 34 -73 29 -29 41
-34 83 -34 60 0 94 20 74 44 -10 11 -18 13 -31 6 -50 -27 -110 5 -110 58 0 50
42 74 101 59 18 -5 31 -2 39 8 10 13 7 17 -23 30 -44 18 -63 18 -103 1z"/>
<path d="M2280 1781 l0 -111 25 0 c23 0 25 4 25 46 l0 45 47 -3 48 -3 -3 -42
c-3 -40 -2 -43 22 -43 l26 0 0 111 c0 109 0 110 -22 107 -19 -2 -24 -10 -26
-45 l-3 -43 -44 0 -44 0 -3 43 c-2 35 -7 43 -25 45 -23 3 -23 2 -23 -107z"/>
<path d="M2562 1870 c-73 -45 -68 -159 9 -190 89 -37 169 11 169 102 0 86
-100 135 -178 88z m110 -47 c22 -20 23 -70 1 -95 -36 -40 -113 -8 -113 49 0
55 70 85 112 46z"/>
<path d="M2845 1883 c-29 -7 -72 -51 -80 -80 -8 -35 12 -89 42 -113 35 -27
111 -27 146 0 29 23 47 74 40 113 -10 53 -88 96 -148 80z m85 -63 c26 -26 25
-51 -1 -84 -28 -35 -73 -33 -102 5 -47 64 46 136 103 79z"/>
<path d="M3030 1780 l0 -110 80 0 c73 0 80 2 80 20 0 18 -7 20 -55 20 l-55 0
0 90 c0 89 0 90 -25 90 l-25 0 0 -110z"/>
</g>
</svg>
